HIERARCHY
ROOT root
{
	OFFSET 0.000000 0.000000 0.000000
	CHANNELS 6 Xposition Yposition Zposition Zrotation Yrotation Xrotation
	JOINT lhip
	{
		OFFSET 0.058581 -0.082280 -0.017664
		CHANNELS 3 Zrotation Yrotation Xrotation
		JOINT lknee
		{
			OFFSET 0.043451 -0.386469 0.008037
			CHANNELS 3 Zrotation Yrotation Xrotation
			JOINT lankle
			{
				OFFSET -0.014790 -0.426874 -0.037428
				CHANNELS 3 Zrotation Yrotation Xrotation
				JOINT ltoe
				{
					OFFSET 0.041054 -0.060286 0.122042
					CHANNELS 3 Zrotation Yrotation Xrotation
					End Site
					{
						OFFSET 0.000000 0.000000 0.000000
					}
				}
			}
		}
	}
	JOINT rhip
	{
		OFFSET -0.060310 -0.090513 -0.013543
		CHANNELS 3 Zrotation Yrotation Xrotation
		JOINT rknee
		{
			OFFSET -0.043257 -0.383688 -0.004843
			CHANNELS 3 Zrotation Yrotation Xrotation
			JOINT rankle
			{
				OFFSET 0.019056 -0.420046 -0.034562
				CHANNELS 3 Zrotation Yrotation Xrotation
				JOINT rtoe
				{
					OFFSET -0.034840 -0.062106 0.130323
					CHANNELS 3 Zrotation Yrotation Xrotation
					End Site
					{
						OFFSET 0.000000 0.000000 0.000000
					}
				}
			}
		}
	}
	JOINT lowerback
	{
		OFFSET 0.004439 0.124404 -0.038385
		CHANNELS 3 Zrotation Yrotation Xrotation
		JOINT upperback
		{
			OFFSET 0.004488 0.137956 0.026820
			CHANNELS 3 Zrotation Yrotation Xrotation
			JOINT chest
			{
				OFFSET -0.002265 0.056032 0.002855
				CHANNELS 3 Zrotation Yrotation Xrotation
				JOINT lowerneck
				{
					OFFSET -0.013390 0.211636 -0.033468
					CHANNELS 3 Zrotation Yrotation Xrotation
					JOINT upperneck
					{
						OFFSET 0.010113 0.088937 0.050410
						CHANNELS 3 Zrotation Yrotation Xrotation
						End Site
						{
							OFFSET 0.000000 0.000000 0.000000
						}
					}
				}
				JOINT lclavicle
				{
					OFFSET 0.071702 0.114000 -0.018898
					CHANNELS 3 Zrotation Yrotation Xrotation
					JOINT lshoulder
					{
						OFFSET 0.122921 0.045205 -0.019046
						CHANNELS 3 Zrotation Yrotation Xrotation
						JOINT lelbow
						{
							OFFSET 0.255332 -0.015649 -0.022946
							CHANNELS 3 Zrotation Yrotation Xrotation
							JOINT lwrist
							{
								OFFSET 0.265709 0.012698 -0.007375
								CHANNELS 3 Zrotation Yrotation Xrotation
								End Site
								{
									OFFSET 0.000000 0.000000 0.000000
								}
							}
						}
					}
				}
				JOINT rclavicle
				{
					OFFSET -0.082954 0.112472 -0.023707
					CHANNELS 3 Zrotation Yrotation Xrotation
					JOINT rshoulder
					{
						OFFSET -0.113228 0.046853 -0.008472
						CHANNELS 3 Zrotation Yrotation Xrotation
						JOINT relbow
						{
							OFFSET -0.260127 -0.014369 -0.031269
							CHANNELS 3 Zrotation Yrotation Xrotation
							JOINT rwrist
							{
								OFFSET -0.269108 0.006794 -0.006027
								CHANNELS 3 Zrotation Yrotation Xrotation
								End Site
								{
									OFFSET 0.000000 0.000000 0.000000
								}
							}
						}
					}
				}
			}
		}
	}
}
MOTION
Frames: 8
Frame Time: 0.033333
-0.090364 0.818644 0.611283 99.927410 -7.151820 93.465997 3.391890 -10.670558 -73.152003 16.142062 17.157422 113.774846 7.904689 27.634053 -43.615721 0.000000 -0.000000 0.000000 -20.742400 -11.280090 -86.532116 0.707571 -3.264859 102.068057 6.989088 -4.856241 -19.525307 0.000000 -0.000000 0.000000 9.681092 -11.877408 74.715296 -0.166777 4.443401 -4.462757 2.098404 3.976741 2.373019 1.032908 -31.984525 -2.737740 18.310995 -5.545700 -11.118930 -28.934650 -19.427139 2.175471 -56.918176 -8.019868 12.428854 31.088924 -64.263751 -23.010729 20.829409 2.412167 -17.559757 10.676510 32.263564 7.846175 3.557905 13.268602 -17.776685 -25.235036 41.250510 -21.364166 -22.809533 13.487095 32.703934 
-0.090420 0.818735 0.603514 100.574215 -7.603019 92.219240 3.639618 -11.600919 -73.099057 16.571884 17.587460 115.660221 7.708064 27.410442 -43.810329 0.000000 -0.000000 0.000000 -21.472914 -11.410108 -86.246339 0.613013 -2.931512 103.712192 7.232506 -4.965731 -20.621474 0.000000 -0.000000 0.000000 9.506918 -12.059571 74.757072 0.524420 3.875238 -2.842031 1.742707 4.073434 1.790163 1.623781 -30.945117 -3.346346 18.115420 -6.867283 -10.522810 -28.508565 -19.490889 1.837350 -57.072925 -8.359392 12.512879 32.084366 -64.483439 -23.235530 19.695021 2.764808 -17.632994 11.931858 31.981501 8.398902 3.608642 13.290987 -17.309572 -27.433829 41.843563 -22.108733 -24.696440 14.405349 33.556678 
-0.090705 0.817374 0.600520 100.646022 -7.176886 91.938717 3.885867 -11.203882 -73.193046 16.355305 17.273424 116.303595 8.193346 27.547744 -43.878559 0.000000 -0.000000 0.000000 -21.219120 -10.828935 -86.248619 0.562467 -2.873789 104.162748 6.837360 -5.426092 -21.027404 0.000000 -0.000000 0.000000 9.882055 -11.752989 74.545952 0.816781 4.037462 -3.332672 1.672403 4.086848 2.311740 1.673674 -30.878663 -3.351650 18.275576 -7.522762 -9.940695 -28.194577 -19.472437 1.618574 -57.343165 -8.906123 12.478415 31.590062 -64.500774 -23.181849 19.342443 2.970333 -17.357295 12.595185 31.489353 8.610172 4.856417 13.341466 -17.545451 -30.726267 42.886079 -24.679660 -22.077290 13.363425 32.756996 
-0.091040 0.815509 0.601517 100.398340 -6.719704 91.450314 3.903017 -10.525107 -72.629521 15.930020 16.907662 116.078466 7.493442 27.092530 -44.434102 0.000000 -0.000000 0.000000 -21.303747 -9.771982 -85.387539 0.088489 -3.132146 103.965463 6.609656 -5.429763 -20.850034 0.000000 -0.000000 0.000000 10.265863 -11.317669 73.572203 1.211508 3.696096 -1.794557 1.114470 4.183722 1.604836 2.118618 -30.050838 -3.565344 17.927776 -8.097025 -9.755762 -27.488793 -19.677913 1.427407 -57.907218 -9.162920 12.675639 33.310269 -64.371798 -24.833998 19.971825 3.218871 -17.946938 13.534884 31.375531 8.491100 5.898757 13.736714 -17.602928 -33.246494 43.821049 -26.990511 -19.465286 11.308201 30.780875 
-0.090520 0.815829 0.608955 100.251510 -6.786126 90.842276 3.114702 -10.567710 -70.997146 16.401312 16.366839 114.788119 7.667932 26.596279 -43.792325 0.000000 -0.000000 0.000000 -21.135800 -9.237233 -83.720998 -0.065505 -2.772202 102.772973 6.315056 -5.195761 -20.776121 0.000000 -0.000000 0.000000 10.448697 -11.170001 73.058558 1.144160 3.344747 -1.353966 1.021340 3.880489 1.451453 2.143937 -29.524552 -4.252833 17.849338 -8.763636 -9.230720 -27.100602 -19.321446 0.819624 -58.626617 -9.518822 12.346443 33.419670 -64.352518 -24.850004 18.192319 2.830058 -17.923562 13.247943 30.869700 7.952775 7.718707 14.466386 -16.984856 -35.342946 44.623168 -28.773602 -21.621847 12.310721 30.884453 
-0.089580 0.815447 0.621425 99.450787 -6.566773 90.338381 3.110630 -10.276537 -68.687679 16.257108 16.847183 112.678920 7.498756 26.325302 -43.675305 0.000000 -0.000000 0.000000 -20.865700 -7.957245 -81.643575 -0.214528 -2.906309 100.739160 6.444971 -5.436633 -20.508832 0.000000 -0.000000 0.000000 10.405279 -10.452973 72.775782 1.056094 3.154808 -1.536267 1.024576 3.714215 1.597400 2.300186 -29.170233 -4.823103 17.510501 -8.732676 -9.000298 -26.961444 -19.081175 1.105086 -59.184956 -9.969780 11.955468 34.655817 -64.317461 -25.922172 19.487251 2.758388 -17.965347 13.288981 30.315093 7.425117 9.902193 14.784088 -16.032005 -39.067495 46.523816 -31.248547 -21.246966 12.848734 30.106580 
-0.089532 0.815281 0.637437 99.229687 -6.142639 89.835455 1.716554 -9.901241 -66.046630 15.872261 15.934632 109.728049 7.502111 25.927470 -43.182140 0.000000 -0.000000 0.000000 -19.711684 -7.103127 -79.207303 -0.685449 -2.301246 98.456386 5.922235 -5.669537 -20.191139 0.000000 -0.000000 0.000000 10.495954 -10.186157 71.647669 1.314095 2.697491 -0.861038 0.948577 3.413506 1.519338 2.586214 -28.694444 -5.401591 17.474351 -9.266703 -8.809141 -26.624704 -18.542637 0.873009 -59.890060 -10.160574 11.224141 34.789841 -64.333699 -25.688106 17.989658 2.762595 -18.438748 13.245371 29.389173 6.960330 12.311988 15.842025 -15.468459 -43.626588 49.548569 -34.656966 -20.152603 11.705980 28.887983 
-0.088174 0.815609 0.656543 98.840879 -5.632733 89.232581 1.026124 -9.545124 -62.896293 15.508599 15.643341 106.396902 7.388441 25.555180 -42.790149 0.000000 -0.000000 0.000000 -18.411348 -6.181439 -76.089319 -0.897783 -1.742489 95.613425 5.915769 -5.662897 -20.244613 0.000000 -0.000000 0.000000 10.525690 -9.866948 70.710888 1.413083 2.201427 -0.868107 0.928129 3.198701 1.846138 2.832786 -27.932233 -6.009385 17.169577 -9.854381 -8.185879 -26.872407 -17.779186 0.662368 -60.385833 -9.917863 10.352060 35.853760 -64.824009 -26.430099 17.624200 2.689147 -17.598873 13.766196 28.386103 6.326217 14.377048 16.484837 -14.668721 -50.307357 52.453462 -38.878705 -22.350351 13.872286 31.259327 
